<?xml version="1.0" encoding="UTF-8"?>
<svg xmlns="http://www.w3.org/2000/svg" width="1180" height="631" viewBox="0 0 1180 631" font-family="ui-monospace,SFMono-Regular,Menlo,Consolas,monospace">
  <rect width="1180" height="631" fill="#FFFFFF" rx="12"/>
  <text x="12" y="32" font-size="13" letter-spacing="2" fill="#0891B2">PROJECTS.LIST  ./projects.sh --all</text>
  
  <rect x="12" y="52" width="570" height="175" rx="14" fill="#F8FAFC" stroke="#0891B2" stroke-opacity="0.35" stroke-width="1.5"/>
  <text x="34" y="80" font-size="11" fill="#94A3B8">Abdul-Rehman-DevOps/log-viewer</text>
  <text x="34" y="108" font-size="20" font-weight="700" fill="#0F172A">Secure GitOps Platform_</text>
  <text x="34" y="134" font-size="12" fill="#475569">ArgoCD/Flux GitOps with env isolation, progressive delivery, and audit-ready r…</text>
  <circle cx="512" cy="130" r="34" fill="none" stroke="rgba(148,163,184,0.15)" stroke-width="8"/>
  <circle cx="512" cy="130" r="34" fill="none" stroke="#7C3AED" stroke-width="8" stroke-dasharray="96.13 117.50" stroke-dashoffset="-0.00" transform="rotate(-90 512 130)"/><circle cx="512" cy="130" r="34" fill="none" stroke="#0891B2" stroke-width="8" stroke-dasharray="64.09 149.54" stroke-dashoffset="-96.13" transform="rotate(-90 512 130)"/><circle cx="512" cy="130" r="34" fill="none" stroke="#10B981" stroke-width="8" stroke-dasharray="53.41 160.22" stroke-dashoffset="-160.22" transform="rotate(-90 512 130)"/>
  <text x="512" y="135" text-anchor="middle" font-size="14" font-weight="700" fill="#0F172A">45%</text>
  <rect x="34" y="190" width="80" height="20" rx="10" fill="rgba(124,58,237,0.25)" stroke="#7C3AED" stroke-width="1"/><text x="74" y="204" text-anchor="middle" font-size="10" fill="#0F172A">ArgoCD</text><rect x="122" y="190" width="80" height="20" rx="10" fill="rgba(124,58,237,0.25)" stroke="#7C3AED" stroke-width="1"/><text x="162" y="204" text-anchor="middle" font-size="10" fill="#0F172A">Kubernetes</text><rect x="210" y="190" width="80" height="20" rx="10" fill="rgba(124,58,237,0.25)" stroke="#7C3AED" stroke-width="1"/><text x="250" y="204" text-anchor="middle" font-size="10" fill="#0F172A">GitOps</text>

  <rect x="598" y="52" width="570" height="175" rx="14" fill="#F8FAFC" stroke="#0891B2" stroke-opacity="0.35" stroke-width="1.5"/>
  <text x="620" y="80" font-size="11" fill="#94A3B8">Abdul-Rehman-DevOps/Abdul-Rehman-DevOps</text>
  <text x="620" y="108" font-size="20" font-weight="700" fill="#0F172A">DevSecOps CI/CD Factory_</text>
  <text x="620" y="134" font-size="12" fill="#475569">Pipelines with SAST, container scans, policy gates, artifact promotion, and si…</text>
  <circle cx="1098" cy="130" r="34" fill="none" stroke="rgba(148,163,184,0.15)" stroke-width="8"/>
  <circle cx="1098" cy="130" r="34" fill="none" stroke="#7C3AED" stroke-width="8" stroke-dasharray="106.81 106.81" stroke-dashoffset="-0.00" transform="rotate(-90 1098 130)"/><circle cx="1098" cy="130" r="34" fill="none" stroke="#0891B2" stroke-width="8" stroke-dasharray="64.09 149.54" stroke-dashoffset="-106.81" transform="rotate(-90 1098 130)"/><circle cx="1098" cy="130" r="34" fill="none" stroke="#10B981" stroke-width="8" stroke-dasharray="42.73 170.90" stroke-dashoffset="-170.90" transform="rotate(-90 1098 130)"/>
  <text x="1098" y="135" text-anchor="middle" font-size="14" font-weight="700" fill="#0F172A">50%</text>
  <rect x="620" y="190" width="80" height="20" rx="10" fill="rgba(124,58,237,0.25)" stroke="#7C3AED" stroke-width="1"/><text x="660" y="204" text-anchor="middle" font-size="10" fill="#0F172A">GitHub Actions</text><rect x="708" y="190" width="80" height="20" rx="10" fill="rgba(124,58,237,0.25)" stroke="#7C3AED" stroke-width="1"/><text x="748" y="204" text-anchor="middle" font-size="10" fill="#0F172A">Jenkins</text><rect x="796" y="190" width="80" height="20" rx="10" fill="rgba(124,58,237,0.25)" stroke="#7C3AED" stroke-width="1"/><text x="836" y="204" text-anchor="middle" font-size="10" fill="#0F172A">Trivy</text>

  <rect x="12" y="243" width="570" height="175" rx="14" fill="#F8FAFC" stroke="#0891B2" stroke-opacity="0.35" stroke-width="1.5"/>
  <text x="34" y="271" font-size="11" fill="#94A3B8">Abdul-Rehman-DevOps/Portfolio</text>
  <text x="34" y="299" font-size="20" font-weight="700" fill="#0F172A">EKS Platform Engineering_</text>
  <text x="34" y="325" font-size="12" fill="#475569">Production EKS with Karpenter, Istio mesh, IRSA, External Secrets, and cost-aw…</text>
  <circle cx="512" cy="321" r="34" fill="none" stroke="rgba(148,163,184,0.15)" stroke-width="8"/>
  <circle cx="512" cy="321" r="34" fill="none" stroke="#7C3AED" stroke-width="8" stroke-dasharray="85.45 128.18" stroke-dashoffset="-0.00" transform="rotate(-90 512 321)"/><circle cx="512" cy="321" r="34" fill="none" stroke="#0891B2" stroke-width="8" stroke-dasharray="85.45 128.18" stroke-dashoffset="-85.45" transform="rotate(-90 512 321)"/><circle cx="512" cy="321" r="34" fill="none" stroke="#10B981" stroke-width="8" stroke-dasharray="42.73 170.90" stroke-dashoffset="-170.90" transform="rotate(-90 512 321)"/>
  <text x="512" y="326" text-anchor="middle" font-size="14" font-weight="700" fill="#0F172A">40%</text>
  <rect x="34" y="381" width="80" height="20" rx="10" fill="rgba(124,58,237,0.25)" stroke="#7C3AED" stroke-width="1"/><text x="74" y="395" text-anchor="middle" font-size="10" fill="#0F172A">EKS</text><rect x="122" y="381" width="80" height="20" rx="10" fill="rgba(124,58,237,0.25)" stroke="#7C3AED" stroke-width="1"/><text x="162" y="395" text-anchor="middle" font-size="10" fill="#0F172A">Istio</text><rect x="210" y="381" width="80" height="20" rx="10" fill="rgba(124,58,237,0.25)" stroke="#7C3AED" stroke-width="1"/><text x="250" y="395" text-anchor="middle" font-size="10" fill="#0F172A">Karpenter</text>

  <rect x="598" y="243" width="570" height="175" rx="14" fill="#F8FAFC" stroke="#0891B2" stroke-opacity="0.35" stroke-width="1.5"/>
  <text x="620" y="271" font-size="11" fill="#94A3B8">Abdul-Rehman-DevOps/Abdul-Rehman-DevOps</text>
  <text x="620" y="299" font-size="20" font-weight="700" fill="#0F172A">Terraform Multi-Cloud IaC_</text>
  <text x="620" y="325" font-size="12" fill="#475569">Modular Terraform with remote state, locking, least-privilege IAM, and VPC har…</text>
  <circle cx="1098" cy="321" r="34" fill="none" stroke="rgba(148,163,184,0.15)" stroke-width="8"/>
  <circle cx="1098" cy="321" r="34" fill="none" stroke="#7C3AED" stroke-width="8" stroke-dasharray="149.54 64.09" stroke-dashoffset="-0.00" transform="rotate(-90 1098 321)"/><circle cx="1098" cy="321" r="34" fill="none" stroke="#0891B2" stroke-width="8" stroke-dasharray="42.73 170.90" stroke-dashoffset="-149.54" transform="rotate(-90 1098 321)"/><circle cx="1098" cy="321" r="34" fill="none" stroke="#10B981" stroke-width="8" stroke-dasharray="21.36 192.27" stroke-dashoffset="-192.27" transform="rotate(-90 1098 321)"/>
  <text x="1098" y="326" text-anchor="middle" font-size="14" font-weight="700" fill="#0F172A">70%</text>
  <rect x="620" y="381" width="80" height="20" rx="10" fill="rgba(124,58,237,0.25)" stroke="#7C3AED" stroke-width="1"/><text x="660" y="395" text-anchor="middle" font-size="10" fill="#0F172A">Terraform</text><rect x="708" y="381" width="80" height="20" rx="10" fill="rgba(124,58,237,0.25)" stroke="#7C3AED" stroke-width="1"/><text x="748" y="395" text-anchor="middle" font-size="10" fill="#0F172A">AWS</text><rect x="796" y="381" width="80" height="20" rx="10" fill="rgba(124,58,237,0.25)" stroke="#7C3AED" stroke-width="1"/><text x="836" y="395" text-anchor="middle" font-size="10" fill="#0F172A">Azure</text>

  <rect x="12" y="434" width="570" height="175" rx="14" fill="#F8FAFC" stroke="#0891B2" stroke-opacity="0.35" stroke-width="1.5"/>
  <text x="34" y="462" font-size="11" fill="#94A3B8">Abdul-Rehman-DevOps/log-viewer</text>
  <text x="34" y="490" font-size="20" font-weight="700" fill="#0F172A">Observability Stack_</text>
  <text x="34" y="516" font-size="12" fill="#475569">Prometheus, Grafana, Loki, Tempo, Alertmanager, and Kiali for metrics, logs, a…</text>
  <circle cx="512" cy="512" r="34" fill="none" stroke="rgba(148,163,184,0.15)" stroke-width="8"/>
  <circle cx="512" cy="512" r="34" fill="none" stroke="#7C3AED" stroke-width="8" stroke-dasharray="117.50 96.13" stroke-dashoffset="-0.00" transform="rotate(-90 512 512)"/><circle cx="512" cy="512" r="34" fill="none" stroke="#0891B2" stroke-width="8" stroke-dasharray="53.41 160.22" stroke-dashoffset="-117.50" transform="rotate(-90 512 512)"/><circle cx="512" cy="512" r="34" fill="none" stroke="#10B981" stroke-width="8" stroke-dasharray="42.73 170.90" stroke-dashoffset="-170.90" transform="rotate(-90 512 512)"/>
  <text x="512" y="517" text-anchor="middle" font-size="14" font-weight="700" fill="#0F172A">55%</text>
  <rect x="34" y="572" width="80" height="20" rx="10" fill="rgba(124,58,237,0.25)" stroke="#7C3AED" stroke-width="1"/><text x="74" y="586" text-anchor="middle" font-size="10" fill="#0F172A">Prometheus</text><rect x="122" y="572" width="80" height="20" rx="10" fill="rgba(124,58,237,0.25)" stroke="#7C3AED" stroke-width="1"/><text x="162" y="586" text-anchor="middle" font-size="10" fill="#0F172A">Grafana</text><rect x="210" y="572" width="80" height="20" rx="10" fill="rgba(124,58,237,0.25)" stroke="#7C3AED" stroke-width="1"/><text x="250" y="586" text-anchor="middle" font-size="10" fill="#0F172A">Loki</text>

  <rect x="598" y="434" width="570" height="175" rx="14" fill="#F8FAFC" stroke="#0891B2" stroke-opacity="0.35" stroke-width="1.5"/>
  <text x="620" y="462" font-size="11" fill="#94A3B8">Abdul-Rehman-DevOps/Portfolio</text>
  <text x="620" y="490" font-size="20" font-weight="700" fill="#0F172A">Web3 Secure Infra_</text>
  <text x="620" y="516" font-size="12" fill="#475569">Hardened RPC/validator nodes, private networking, Vault secrets, and Defguard …</text>
  <circle cx="1098" cy="512" r="34" fill="none" stroke="rgba(148,163,184,0.15)" stroke-width="8"/>
  <circle cx="1098" cy="512" r="34" fill="none" stroke="#7C3AED" stroke-width="8" stroke-dasharray="85.45 128.18" stroke-dashoffset="-0.00" transform="rotate(-90 1098 512)"/><circle cx="1098" cy="512" r="34" fill="none" stroke="#0891B2" stroke-width="8" stroke-dasharray="74.77 138.86" stroke-dashoffset="-85.45" transform="rotate(-90 1098 512)"/><circle cx="1098" cy="512" r="34" fill="none" stroke="#10B981" stroke-width="8" stroke-dasharray="53.41 160.22" stroke-dashoffset="-160.22" transform="rotate(-90 1098 512)"/>
  <text x="1098" y="517" text-anchor="middle" font-size="14" font-weight="700" fill="#0F172A">40%</text>
  <rect x="620" y="572" width="80" height="20" rx="10" fill="rgba(124,58,237,0.25)" stroke="#7C3AED" stroke-width="1"/><text x="660" y="586" text-anchor="middle" font-size="10" fill="#0F172A">Web3</text><rect x="708" y="572" width="80" height="20" rx="10" fill="rgba(124,58,237,0.25)" stroke="#7C3AED" stroke-width="1"/><text x="748" y="586" text-anchor="middle" font-size="10" fill="#0F172A">Vault</text><rect x="796" y="572" width="80" height="20" rx="10" fill="rgba(124,58,237,0.25)" stroke="#7C3AED" stroke-width="1"/><text x="836" y="586" text-anchor="middle" font-size="10" fill="#0F172A">Defguard</text>

</svg>
